<svg width="25" height="20" viewBox="0 0 25 20" fill="none" xmlns="http://www.w3.org/2000/svg">
<path d="M1 0C0.449219 0 0 0.449219 0 1C0 1.55078 0.449219 2 1 2H3.21875L5.84375 12.5C6.06641 13.3906 6.86328 14 7.78125 14H20.25C21.1523 14 21.918 13.4023 22.1562 12.5312L24.75 3H22.6562L20.25 12H7.78125L5.15625 1.5C4.93359 0.609375 4.13672 0 3.21875 0H1ZM19 14C17.3555 14 16 15.3555 16 17C16 18.6445 17.3555 20 19 20C20.6445 20 22 18.6445 22 17C22 15.3555 20.6445 14 19 14ZM10 14C8.35547 14 7 15.3555 7 17C7 18.6445 8.35547 20 10 20C11.6445 20 13 18.6445 13 17C13 15.3555 11.6445 14 10 14ZM13 0V5H10L14 9L18 5H15V0H13ZM10 16C10.5625 16 11 16.4375 11 17C11 17.5625 10.5625 18 10 18C9.4375 18 9 17.5625 9 17C9 16.4375 9.4375 16 10 16ZM19 16C19.5625 16 20 16.4375 20 17C20 17.5625 19.5625 18 19 18C18.4375 18 18 17.5625 18 17C18 16.4375 18.4375 16 19 16Z" fill="white"/>
</svg>
